<?xml version="1.0" encoding="iso-8859-1"?>
<!-- Uploaded to: SVG Repo, www.svgrepo.com, Generator: SVG Repo Mixer Tools -->
<svg version="1.1" id="Layer_1" xmlns="http://www.w3.org/2000/svg" xmlns:xlink="http://www.w3.org/1999/xlink" 
	 viewBox="0 0 512 512" xml:space="preserve">
<g>
	<circle style="fill:#A0EBFF;" cx="256" cy="256" r="256"/>
	<rect x="108.739" y="116.393" style="fill:#335872;" width="294.502" height="233.114"/>
	<rect x="256" y="116.393" style="fill:#153040;" width="147.261" height="233.114"/>
	<rect x="91.725" y="349.491" style="fill:#D03E00;" width="328.55" height="36.956"/>
	<rect x="256" y="349.491" style="fill:#9C2E00;" width="164.301" height="36.956"/>
	<rect x="319.078" y="328.346" style="fill:#FFFFFF;" width="55.572" height="21.176"/>
	<rect x="319.078" y="338.893" style="fill:#E7FFFF;" width="55.572" height="10.588"/>
	<path style="fill:#FFFFFF;" d="M363.136,185.656c6.077,0,10.778-1.843,14.1-5.519c3.318-3.686,4.977-8.842,4.977-15.483
		c0-6.651-1.659-11.817-4.966-15.478c-3.308-3.661-7.992-5.494-14.06-5.494c-6.154,0-10.89,1.807-14.208,5.412
		c-3.318,3.61-4.977,8.781-4.977,15.508s1.654,11.919,4.951,15.58C352.251,183.828,356.977,185.656,363.136,185.656z
		 M354.14,153.272c2.033-2.586,5.053-3.876,9.047-3.876c3.963,0,6.943,1.29,8.945,3.876c2.002,2.586,2.995,6.38,2.995,11.377
		c0,5.079-1.004,8.899-3.026,11.469c-2.017,2.565-5.007,3.845-8.965,3.845c-3.978,0-6.984-1.3-9.011-3.891
		c-2.028-2.596-3.041-6.405-3.041-11.428C351.083,159.652,352.102,155.858,354.14,153.272z M310.17,185.098v-40.781h-6.697v16.681
		h-18.801v-16.681h-6.661v40.781h6.661v-18.381h18.801v18.381H310.17z M324.342,180.89c0.983-0.548,1.956-0.824,2.924-0.824
		c0.932,0,1.659,0.23,2.176,0.691c0.517,0.461,0.773,1.091,0.773,1.884c0,0.64-0.128,1.26-0.384,1.843
		c-0.256,0.584-0.717,1.285-1.372,2.099c-0.65,0.814-2.048,2.34-4.183,4.572l-7.47,7.552v5.437h22.2v-6.82h-11.566v-0.205
		c3.384-3.041,5.601-5.105,6.641-6.195c1.039-1.091,1.869-2.12,2.493-3.103c0.63-0.983,1.096-1.987,1.393-3.005
		c0.302-1.014,0.445-2.125,0.445-3.328c0-1.603-0.425-3.046-1.285-4.337c-0.86-1.29-2.063-2.284-3.62-2.985
		c-1.551-0.696-3.323-1.044-5.299-1.044c-1.577,0-2.995,0.159-4.26,0.481c-1.265,0.323-2.432,0.783-3.507,1.388
		c-1.075,0.609-2.401,1.618-3.973,3.026l4.536,5.309C322.248,182.252,323.359,181.443,324.342,180.89z M309.77,271.237
		c0,9.277-7.516,16.799-16.788,16.799c-9.272,0-16.788-7.521-16.788-16.799s7.516-16.799,16.788-16.799
		C302.254,254.438,309.77,261.96,309.77,271.237z M291.154,265.288c0-2.391-1.935-4.326-4.326-4.326
		c-2.386,0-4.326,1.935-4.326,4.326s1.935,4.326,4.326,4.326C289.219,269.614,291.154,267.674,291.154,265.288z M172.652,215.332
		l-9.708,4.685l17.746,36.762l9.708-4.685L172.652,215.332z M175.073,197.837c0,9.277-7.695,16.799-17.193,16.799
		c-9.492,0-17.193-7.521-17.193-16.799s7.695-16.799,17.193-16.799S175.073,188.559,175.073,197.837z M156.006,191.887
		c0-2.391-1.981-4.326-4.429-4.326c-2.447,0-4.429,1.935-4.429,4.326c0,2.391,1.981,4.326,4.429,4.326
		C154.025,196.214,156.006,194.273,156.006,191.887z M230.651,285.983c0,16.63-13.445,30.111-30.029,30.111
		s-30.034-13.481-30.034-30.111c0-16.63,13.445-30.111,30.034-30.111C217.206,255.872,230.651,269.353,230.651,285.983z
		 M194.872,274.796c0-3.635-2.939-6.584-6.569-6.584c-3.625,0-6.569,2.949-6.569,6.584s2.939,6.584,6.569,6.584
		C191.933,281.38,194.872,278.431,194.872,274.796z M270.966,270.981l-36.096,5.064l1.495,10.675l36.096-5.064L270.966,270.981z"/>
</g>
</svg>