<?xml version="1.0" encoding="iso-8859-1"?>
<!-- Uploaded to: SVG Repo, www.svgrepo.com, Generator: SVG Repo Mixer Tools -->
<svg height="800px" width="800px" version="1.1" id="Layer_1" xmlns="http://www.w3.org/2000/svg" xmlns:xlink="http://www.w3.org/1999/xlink" 
	 viewBox="0 0 512 512" xml:space="preserve">
<path style="fill:#EC5565;" d="M0,256.006C0,397.402,114.606,512.004,255.996,512C397.394,512.004,512,397.402,512,256.006
	C512.009,114.61,397.394,0,255.996,0C114.606,0,0,114.614,0,256.006z"/>
<path style="fill:#D94453;" d="M512,256.005c0-2.435-0.116-4.842-0.183-7.261c-0.101-0.046-0.211-0.073-0.306-0.135
	c-0.359-0.444-0.623-0.959-1.089-1.311c-0.118-0.09-117.709-117.529-117.833-117.61c-0.359-0.444-0.622-0.959-1.089-1.311
	c-1.77-1.341-4.077-1.771-6.213-1.164c-23.102,6.562-59.536,13.565-82.898,11.83c-0.429-0.522-26.246-26.227-26.737-26.726
	c-1.151-1.406-2.475-2.713-4.011-3.884c-24.89-18.962-100.06-0.665-117.555,3.948c-0.405-0.526-23.122-23.232-23.698-23.658
	c-1.291-1.754-3.27-2.965-5.615-2.965c-3.917,0-7.093,3.177-7.093,7.093v326.293c0,2.345,1.213,4.323,2.965,5.614
	c0.425,0.577,0.91,1.061,1.486,1.487c0.426,0.576,78.208,78.361,78.785,78.784c0.358,0.486,0.79,0.879,1.253,1.254
	c17.36,3.715,35.356,5.715,53.825,5.714C397.394,512.004,512,397.401,512,256.005z"/>
<g>
	<path style="fill:#F4F6F9;" d="M124.773,85.76c-3.917,0-7.093,3.177-7.093,7.093v326.293c0,3.917,3.177,7.093,7.093,7.093
		c3.917,0,7.093-3.177,7.093-7.093V92.853C131.867,88.937,128.69,85.76,124.773,85.76z"/>
	<path style="fill:#F4F6F9;" d="M391.501,128.379c-1.77-1.341-4.077-1.77-6.213-1.164c-30.909,8.78-85.702,18.361-101.093,6.73
		c-2.469-1.867-3.571-4.129-3.571-7.34c0-7.408-3.107-13.692-8.981-18.17c-26.631-20.289-110.861,2.085-120.375,4.704
		c-3.079,0.849-5.213,3.647-5.213,6.841v159.014c0,2.275,1.094,4.416,2.938,5.749c1.85,1.33,4.222,1.697,6.38,0.987
		c33.458-11.042,92.358-24.349,107.969-13.068c2.172,1.569,3.097,3.463,3.097,6.332c0,7.658,3.183,14.093,9.206,18.613
		c7.841,5.882,20.445,7.987,34.483,7.987c32.589,0,72.88-11.357,79.087-13.165c3.027-0.88,5.108-3.658,5.108-6.81V134.038
		C394.32,131.814,393.278,129.719,391.501,128.379z M380.133,280.249c-31.504,8.569-81.396,16.954-95.979,6.01
		c-2.442-1.833-3.533-4.074-3.533-7.263c0-7.419-3.103-13.584-8.974-17.827c-6.837-4.946-17.522-6.816-29.787-6.816
		c-28.003,0-64.231,9.76-81.621,14.987V125.431c33.922-8.735,87.717-17.211,102.801-5.711c2.349,1.787,3.394,3.91,3.394,6.885
		c0,7.658,3.183,14.111,9.21,18.658c21.91,16.559,80.974,3.931,104.489-1.995V280.249z"/>
</g>
</svg>