<?xml version="1.0" encoding="iso-8859-1"?>
<!-- Uploaded to: SVG Repo, www.svgrepo.com, Generator: SVG Repo Mixer Tools -->
<svg version="1.1" id="Layer_1" xmlns="http://www.w3.org/2000/svg" xmlns:xlink="http://www.w3.org/1999/xlink" 
	 viewBox="0 0 512.002 512.002" xml:space="preserve">
<circle style="fill:#CFDBE6;" cx="256.001" cy="256" r="256"/>
<path style="fill:#B8C9D9;" d="M511.673,269.041L390.776,148.146l-165.19,172.256L88.241,368.493l142.245,142.245
	c8.394,0.831,16.903,1.264,25.516,1.264C393.012,512,504.883,404.366,511.673,269.041z"/>
<path style="fill:#605A5A;" d="M398.223,341.333H113.779V164.919c0-12.535,10.162-22.697,22.697-22.697h239.049
	c12.536,0,22.699,10.162,22.699,22.697V341.333z"/>
<path style="fill:#353333;" d="M398.223,164.921c0-12.536-10.162-22.699-22.699-22.699h-120.53v199.111h143.229V164.921z"/>
<rect x="128.432" y="158.599" style="fill:#FFFFFF;" width="255.138" height="194.801"/>
<rect x="255.001" y="158.599" style="fill:#E9EFF4;" width="128.569" height="194.801"/>
<path style="fill:#353333;" d="M415.174,372.364H96.826c-6.347,0-11.493-5.146-11.493-11.493v-20.113
	c0-6.347,5.146-11.493,11.493-11.493h318.349c6.347,0,11.493,5.146,11.493,11.493v20.113
	C426.668,367.218,421.522,372.364,415.174,372.364z"/>
<path style="fill:#272525;" d="M415.174,329.266h-160.18v43.098h160.18c6.347,0,11.493-5.146,11.493-11.493v-20.113
	C426.668,334.412,421.522,329.266,415.174,329.266z"/>
<path style="fill:#31BAFD;" d="M252.32,201.202h80.308c3.088,0,5.591,2.503,5.591,5.591v43.711c0,3.088-2.503,5.591-5.591,5.591
	h-52.907l-14.695,14.693v-14.693H252.32c-3.088,0-5.591-2.503-5.591-5.591v-43.711C246.73,203.705,249.233,201.202,252.32,201.202z"
	/>
<path style="fill:#2B9ED8;" d="M332.628,201.202h-39.707v54.893h39.707c3.087,0,5.591-2.503,5.591-5.591v-43.711
	C338.219,203.705,335.716,201.202,332.628,201.202z"/>
<path style="fill:#FFFFFF;" d="M236.383,302.971h-89.195v-15.117c0-10.745,6.877-20.285,17.07-23.683l16.379-5.46h22.299
	l16.379,5.46c10.193,3.398,17.07,12.938,17.07,23.683v15.117H236.383z"/>
<path style="fill:#D0D1D3;" d="M236.383,287.854c0-10.745-6.877-20.285-17.07-23.683l-16.379-5.46H191.21v44.26h45.171v-15.117
	H236.383z"/>
<polygon style="fill:#FED8B2;" points="202.936,258.712 191.785,269.86 180.635,258.712 180.635,247.561 202.936,247.561 "/>
<polygon style="fill:#E8C4A3;" points="191.211,247.561 191.211,269.286 191.785,269.86 202.934,258.712 202.934,247.561 "/>
<path style="fill:#F4E3C3;" d="M169.487,225.263c0-12.316,9.983-22.299,22.299-22.299c12.316,0,22.299,9.983,22.299,22.299
	c0,12.316-9.983,33.449-22.299,33.449C179.47,258.712,169.487,237.578,169.487,225.263z"/>
<path style="fill:#FED8B2;" d="M191.785,202.964c-0.193,0-0.381,0.024-0.574,0.029v55.687c0.191,0.01,0.381,0.031,0.574,0.031
	c12.316,0,22.299-21.133,22.299-33.449C214.084,212.947,204.101,202.964,191.785,202.964z"/>
<path style="fill:#59595B;" d="M214.084,225.263c0-12.316-9.983-22.299-22.299-22.299c-12.316,0-22.299,9.983-22.299,22.299
	c0,4.915,1.593,11.231,4.287,17.051c-0.631-3.35-0.462-6.775-0.131-9.359c14.155-1.11,27.813-7.732,27.813-7.732
	s1.729,3.177,8.213,6.004c0.459,2.638,0.914,6.927,0.124,11.099C212.489,236.503,214.084,230.181,214.084,225.263z"/>
<path style="fill:#272525;" d="M214.084,225.263c0-12.316-9.983-22.299-22.299-22.299c-0.193,0-0.381,0.024-0.574,0.029v26.229
	c6.089-1.991,10.243-3.999,10.243-3.999s1.729,3.177,8.213,6.004c0.459,2.638,0.914,6.927,0.124,11.099
	C212.489,236.503,214.084,230.179,214.084,225.263z"/>
<polygon style="fill:#FFD300;" points="187.096,302.582 190.222,273.572 193.347,273.572 196.474,302.582 "/>
<polygon style="fill:#F9B54C;" points="193.347,273.572 191.211,273.572 191.211,302.582 196.474,302.582 "/>
<path style="fill:#324A5E;" d="M175.534,260.411l-11.278,3.76c-10.193,3.398-17.07,12.938-17.07,23.683v15.117h44.023v-1.879
	L175.534,260.411z"/>
<path style="fill:#2B3B4E;" d="M236.383,287.854c0-10.745-6.877-20.285-17.07-23.683l-11.278-3.76l-16.251,42.17l-0.574-1.489v1.879
	h45.171v-15.117H236.383z"/>
<polygon style="fill:#324A5E;" points="208.035,260.411 211.124,273.572 205.265,276.502 211.124,283.243 191.785,302.582 "/>
<polygon style="fill:#3E5768;" points="175.534,260.411 172.445,273.572 178.306,276.502 172.445,283.243 191.785,302.582 "/>
<polygon style="fill:#F9B54C;" points="197.938,269.908 193.837,279.58 189.734,279.58 185.631,269.908 "/>
<polygon style="fill:#F4A200;" points="197.938,269.908 191.211,269.908 191.211,279.58 193.837,279.58 "/>
<polygon style="fill:#A6A8AA;" points="201.455,273.572 208.035,260.411 202.936,258.712 191.785,269.86 "/>
<polygon style="fill:#D0D1D3;" points="182.116,273.572 175.534,260.411 180.635,258.712 191.785,269.86 "/>
</svg>