<?xml version="1.0" encoding="iso-8859-1"?>
<!-- Uploaded to: SVG Repo, www.svgrepo.com, Generator: SVG Repo Mixer Tools -->
<svg height="800px" width="800px" version="1.1" id="Layer_1" xmlns="http://www.w3.org/2000/svg" xmlns:xlink="http://www.w3.org/1999/xlink" 
	 viewBox="0 0 512.001 512.001" xml:space="preserve">
<path style="fill:#EB86BF;" d="M512.001,256.006c0,141.395-114.606,255.998-255.996,255.994
	C114.606,512.004,0.001,397.402,0.001,256.006C-0.007,114.61,114.606,0,256.005,0C397.395,0,512.001,114.614,512.001,256.006z"/>
<path style="fill:#D670AD;" d="M512.001,256.005c0-2.372-0.114-4.716-0.179-7.072c0,0-0.677-0.677-0.679-0.681L365.386,102.535
	c-1.456-1.453-3.424-2.267-5.489-2.267c-2.063,0.004-4.034,0.829-5.487,2.289l-15.793,15.897
	c-0.261-0.258-44.884-44.746-45.501-45.203c-1.411-1.905-3.568-3.22-6.119-3.22h-61.989c-4.278,0-7.748,3.47-7.748,7.748v44.975
	c-1.233,0.443-2.569,0.911-3.977,1.408c-7.249,2.55-16.662,5.863-24.65,9.875l-31.47-31.463c-2.905-2.906-8.051-2.906-10.957,0
	l-43.825,43.833c-1.456,1.457-2.273,3.428-2.27,5.486c0,2.059,0.821,4.029,2.277,5.483c0,0,30.244,30.238,30.252,30.251l1.022,1.019
	c-4.915,8.475-8.483,15.711-10.831,20.865h-45.05c-4.279,0-7.75,3.47-7.75,7.748v61.989c0,2.553,1.317,4.708,3.221,6.121
	c0.459,0.615,47.156,47.315,47.771,47.772c0.246,0.332,0.419,0.711,0.714,0.999l-19.409,19.807c-2.966,3.023-2.95,7.87,0.034,10.878
	l43.84,44.192c0.012,0.011,0.028,0.015,0.037,0.026l1.555,1.567c0.011,0.011,101.221,101.217,101.221,101.217
	c2.329,0.063,4.644,0.176,6.989,0.176C397.395,512.004,512.001,397.401,512.001,256.005z"/>
<g>
	<path style="fill:#F6F6F6;" d="M434.22,209.508h-45.618c-2.864-6.023-6.295-13.186-10.707-20.938l31.328-31.263
		c1.457-1.457,2.274-3.428,2.274-5.483c0-2.059-0.817-4.033-2.27-5.486l-43.84-43.802c-1.457-1.453-3.424-2.267-5.478-2.267h-0.012
		c-2.062,0.004-4.033,0.829-5.486,2.289l-31.248,31.453c-7.983-4.014-17.34-7.325-24.544-9.875c-1.37-0.484-2.668-0.942-3.874-1.377
		V77.78c0-4.279-3.47-7.748-7.748-7.748h-61.989c-4.279,0-7.748,3.47-7.748,7.748v44.975c-1.233,0.443-2.569,0.912-3.977,1.408
		c-7.249,2.55-16.662,5.865-24.65,9.875l-31.47-31.465c-2.906-2.906-8.051-2.906-10.957,0l-43.825,43.833
		c-1.457,1.457-2.274,3.428-2.27,5.486c0,2.059,0.821,4.03,2.277,5.483l31.313,31.199c-4.938,8.506-8.516,15.766-10.87,20.934
		H77.781c-4.279,0-7.748,3.47-7.748,7.748v61.989c0,4.279,3.47,7.748,7.748,7.748h43.492c3.045,17.078,7.537,26.511,12.451,34.911
		l-31.396,32.039c-2.966,3.023-2.951,7.87,0.034,10.878l43.84,44.192c1.45,1.46,3.421,2.285,5.478,2.293
		c1.766-0.215,4.033-0.806,5.49-2.259l31.422-31.301c8.063,4.082,17.567,7.491,24.884,10.117c1.335,0.48,2.603,0.934,3.78,1.362
		v44.994c0,4.279,3.47,7.748,7.748,7.748h61.989c4.279,0,7.748-3.47,7.748-7.748v-44.987c1.215-0.435,2.524-0.9,3.905-1.392
		c7.204-2.558,16.557-5.876,24.529-9.894l31.37,31.449c1.453,1.457,3.424,2.277,5.483,2.277h0.004c2.059,0,4.03-0.817,5.483-2.274
		l43.772-43.825c2.981-2.981,3.027-7.802,0.106-10.844l-31.309-32.58c0.095-0.137,0.186-0.269,0.279-0.401
		c5.74-8.207,9.602-14.982,12.247-34.755h43.609c4.279,0,7.748-3.47,7.748-7.748v-61.989
		C441.969,212.977,438.5,209.508,434.22,209.508z M426.472,271.498h-42.747c-3.965,0-7.291,2.996-7.707,6.939
		c-2.421,23.091-5.747,27.846-10.352,34.43c-1.294,1.85-2.653,3.798-4.082,6.141c-1.835,3.004-1.411,6.867,1.025,9.406
		l30.348,31.581l-32.921,32.962l-30.003-30.079c-2.531-2.539-6.466-3.011-9.527-1.142c-7.43,4.541-18.766,8.566-27.041,11.502
		c-3.798,1.347-7.102,2.527-9.467,3.519c-2.879,1.207-4.752,4.026-4.752,7.147v42.569h-46.492v-42.569
		c0-3.121-1.873-5.94-4.752-7.147c-2.319-0.973-5.562-2.142-9.293-3.477c-8.403-3.015-19.909-7.143-27.423-11.737
		c-3.05-1.866-6.98-1.404-9.508,1.12l-30.042,29.927l-32.992-33.258l30.25-30.866c2.485-2.535,2.928-6.436,1.074-9.467
		c-6.368-10.409-11.396-18.63-14.506-40.828c-0.538-3.829-3.81-6.674-7.673-6.674H85.529v-46.492h42.361
		c3.118,0,5.933-1.869,7.143-4.745c2.16-5.138,6.985-15.717,15.028-28.865c1.873-3.061,1.399-7.004-1.139-9.535l-30.094-29.988
		l32.857-32.864l30.098,30.098c2.524,2.527,6.459,3.004,9.516,1.135c7.408-4.522,18.807-8.532,27.127-11.465
		c3.847-1.355,7.193-2.539,9.569-3.53c2.883-1.207,4.759-4.026,4.759-7.151V85.529h46.492v42.569c0,3.125,1.876,5.943,4.759,7.151
		c2.361,0.983,5.657,2.157,9.443,3.495c8.278,2.932,19.614,6.946,27.068,11.483c3.061,1.866,6.996,1.389,9.527-1.157l29.883-30.079
		l32.857,32.826l-30.086,30.027c-2.531,2.531-3.004,6.462-1.142,9.519c5.725,9.387,9.962,18.301,13.371,25.467l1.808,3.791
		c1.294,2.683,4.006,4.385,6.98,4.385h42.757v46.494H426.472z"/>
	<path style="fill:#F6F6F6;" d="M256.016,178.384c-42.701,0-77.438,34.82-77.438,77.616s34.737,77.615,77.438,77.615
		s77.438-34.82,77.438-77.615S298.716,178.384,256.016,178.384z M256.016,318.118c-34.154,0-61.94-27.866-61.94-62.118
		s27.787-62.118,61.94-62.118s61.94,27.866,61.94,62.118S290.17,318.118,256.016,318.118z"/>
</g>
</svg>